<mxfile host="app.diagrams.net" agent="Mozilla/5.0 (Windows NT 10.0; Win64; x64) AppleWebKit/537.36 (KHTML, like Gecko) Chrome/122.0.0.0 Safari/537.36" version="26.0.10">
  <diagram id="07fea595-8f29-1299-0266-81d95cde20df" name="Page-1">
    <mxGraphModel dx="4247" dy="1013" grid="1" gridSize="10" guides="1" tooltips="1" connect="1" arrows="1" fold="1" page="1" pageScale="1" pageWidth="1169" pageHeight="827" background="none" math="0" shadow="0">
      <root>
        <mxCell id="0" />
        <mxCell id="1" parent="0" />
        <mxCell id="698" value="" style="rounded=0;whiteSpace=wrap;html=1;shadow=0;labelBackgroundColor=none;strokeColor=none;strokeWidth=3;fillColor=#e8edf0;fontSize=60;fontColor=#2F5B7C;align=left;" parent="1" vertex="1">
          <mxGeometry x="-2290" y="32" width="2250" height="1598" as="geometry" />
        </mxCell>
        <mxCell id="699" value="&lt;font style=&quot;font-size: 14px;&quot;&gt;&lt;br&gt;&lt;/font&gt;&lt;p data-sourcepos=&quot;33:1-33:35&quot;&gt;&lt;strong&gt;&lt;font style=&quot;font-size: 24px;&quot;&gt;Взаємовідносини з клієнтами:&lt;/font&gt;&lt;/strong&gt;&lt;/p&gt;&lt;ul data-sourcepos=&quot;35:1-40:0&quot;&gt;&lt;font size=&quot;3&quot;&gt;&lt;br&gt;&lt;/font&gt;&lt;li data-sourcepos=&quot;35:1-35:47&quot;&gt;&lt;font size=&quot;3&quot;&gt;Персоналізовані рекомендації та сповіщення.&lt;/font&gt;&lt;/li&gt;&lt;font size=&quot;3&quot;&gt;&lt;br&gt;&lt;/font&gt;&lt;li data-sourcepos=&quot;36:1-36:47&quot;&gt;&lt;font size=&quot;3&quot;&gt;Програма лояльності з бонусами та знижками.&lt;/font&gt;&lt;/li&gt;&lt;font size=&quot;3&quot;&gt;&lt;br&gt;&lt;/font&gt;&lt;li data-sourcepos=&quot;37:1-37:28&quot;&gt;&lt;font size=&quot;3&quot;&gt;Онлайн-чат з підтримкою.&lt;/font&gt;&lt;/li&gt;&lt;font size=&quot;3&quot;&gt;&lt;br&gt;&lt;/font&gt;&lt;li data-sourcepos=&quot;38:1-38:61&quot;&gt;&lt;font size=&quot;3&quot;&gt;E-mail розсилки з актуальною інформацією та пропозиціями.&lt;/font&gt;&lt;/li&gt;&lt;font size=&quot;3&quot;&gt;&lt;br&gt;&lt;/font&gt;&lt;li data-sourcepos=&quot;39:1-40:0&quot;&gt;&lt;font size=&quot;3&quot;&gt;Відгуки та оцінки клієнтів.&lt;/font&gt;&lt;/li&gt;&lt;/ul&gt;&lt;font size=&quot;3&quot;&gt;&lt;br&gt;&lt;/font&gt;" style="rounded=0;whiteSpace=wrap;html=1;shadow=0;labelBackgroundColor=none;strokeColor=#e8edf0;strokeWidth=5;fillColor=#ffffff;fontSize=12;fontColor=#2F5B7C;align=left;verticalAlign=top;spacing=30;" parent="1" vertex="1">
          <mxGeometry x="-950" y="235" width="420" height="450" as="geometry" />
        </mxCell>
        <mxCell id="700" value="&lt;br&gt;&lt;p data-sourcepos=&quot;65:1-65:24&quot;&gt;&lt;strong&gt;&lt;font style=&quot;font-size: 24px;&quot;&gt;Ключові партнери:&lt;/font&gt;&lt;/strong&gt;&lt;/p&gt;&lt;ul data-sourcepos=&quot;67:1-72:0&quot;&gt;&lt;font style=&quot;font-size: 14px;&quot;&gt;&lt;br&gt;&lt;/font&gt;&lt;li data-sourcepos=&quot;67:1-67:65&quot;&gt;&lt;font size=&quot;3&quot; style=&quot;&quot;&gt;Перевізники (Укрзалізниця, автобусні компанії, авіакомпанії).&lt;/font&gt;&lt;/li&gt;&lt;font size=&quot;3&quot;&gt;&lt;br&gt;&lt;/font&gt;&lt;li data-sourcepos=&quot;68:1-68:52&quot;&gt;&lt;font size=&quot;3&quot;&gt;Організатори культурних та розважальних заходів.&lt;/font&gt;&lt;/li&gt;&lt;font size=&quot;3&quot;&gt;&lt;br&gt;&lt;/font&gt;&lt;li data-sourcepos=&quot;69:1-69:21&quot;&gt;&lt;font size=&quot;3&quot;&gt;Платіжні системи.&lt;/font&gt;&lt;/li&gt;&lt;font size=&quot;3&quot;&gt;&lt;br&gt;&lt;/font&gt;&lt;li data-sourcepos=&quot;70:1-70:25&quot;&gt;&lt;font size=&quot;3&quot;&gt;Туристичні агентства.&lt;/font&gt;&lt;/li&gt;&lt;font size=&quot;3&quot;&gt;&lt;br&gt;&lt;/font&gt;&lt;li data-sourcepos=&quot;71:1-72:0&quot;&gt;&lt;font size=&quot;3&quot;&gt;Інші компанії, що надають супутні послуги.&lt;/font&gt;&lt;/li&gt;&lt;/ul&gt;&lt;div&gt;&lt;br/&gt;&lt;/div&gt;" style="rounded=0;whiteSpace=wrap;html=1;shadow=0;labelBackgroundColor=none;strokeColor=#e8edf0;strokeWidth=5;fillColor=#ffffff;fontSize=12;fontColor=#2F5B7C;align=left;verticalAlign=top;spacing=30;" parent="1" vertex="1">
          <mxGeometry x="-2218" y="245" width="420" height="900" as="geometry" />
        </mxCell>
        <mxCell id="701" value="&lt;br&gt;&lt;p data-sourcepos=&quot;49:1-49:31&quot;&gt;&lt;strong&gt;&lt;font style=&quot;font-size: 24px;&quot;&gt;Ключові види діяльності:&lt;/font&gt;&lt;/strong&gt;&lt;/p&gt;&lt;ul data-sourcepos=&quot;51:1-57:0&quot;&gt;&lt;br&gt;&lt;li data-sourcepos=&quot;51:1-51:58&quot;&gt;&lt;font style=&quot;font-size: 14px;&quot;&gt;Розробка та підтримка веб-сайту та мобільного додатку.&lt;/font&gt;&lt;/li&gt;&lt;font size=&quot;3&quot;&gt;&lt;br&gt;&lt;/font&gt;&lt;li data-sourcepos=&quot;52:1-52:62&quot;&gt;&lt;font size=&quot;3&quot;&gt;Залучення партнерів (перевізників, організаторів заходів).&lt;/font&gt;&lt;/li&gt;&lt;font size=&quot;3&quot;&gt;&lt;br&gt;&lt;/font&gt;&lt;li data-sourcepos=&quot;53:1-53:25&quot;&gt;&lt;font size=&quot;3&quot;&gt;Маркетинг та реклама.&lt;/font&gt;&lt;/li&gt;&lt;font size=&quot;3&quot;&gt;&lt;br&gt;&lt;/font&gt;&lt;li data-sourcepos=&quot;54:1-54:34&quot;&gt;&lt;font size=&quot;3&quot;&gt;Обробка замовлень та платежів.&lt;/font&gt;&lt;/li&gt;&lt;font size=&quot;3&quot;&gt;&lt;br&gt;&lt;/font&gt;&lt;li data-sourcepos=&quot;55:1-55:23&quot;&gt;&lt;font size=&quot;3&quot;&gt;Підтримка клієнтів.&lt;/font&gt;&lt;/li&gt;&lt;font size=&quot;3&quot;&gt;&lt;br&gt;&lt;/font&gt;&lt;li data-sourcepos=&quot;56:1-57:0&quot;&gt;&lt;font size=&quot;3&quot;&gt;Аналіз даних та оптимізація роботи сервісу.&lt;/font&gt;&lt;/li&gt;&lt;/ul&gt;&lt;div&gt;&lt;br/&gt;&lt;/div&gt;" style="rounded=0;whiteSpace=wrap;html=1;shadow=0;labelBackgroundColor=none;strokeColor=#e8edf0;strokeWidth=5;fillColor=#ffffff;fontSize=12;fontColor=#2F5B7C;align=left;verticalAlign=top;spacing=30;" parent="1" vertex="1">
          <mxGeometry x="-1790" y="240" width="420" height="450" as="geometry" />
        </mxCell>
        <mxCell id="702" value="&lt;br&gt;&lt;p data-sourcepos=&quot;58:1-58:23&quot;&gt;&lt;strong&gt;&lt;font style=&quot;font-size: 24px;&quot;&gt;Ключові ресурси:&lt;/font&gt;&lt;/strong&gt;&lt;/p&gt;&lt;ul data-sourcepos=&quot;60:1-64:0&quot;&gt;&lt;br&gt;&lt;li data-sourcepos=&quot;60:1-60:57&quot;&gt;&lt;font style=&quot;font-size: 14px;&quot;&gt;Технологічна платформа (веб-сайт, мобільний додаток).&lt;/font&gt;&lt;/li&gt;&lt;font size=&quot;3&quot;&gt;&lt;br&gt;&lt;/font&gt;&lt;li data-sourcepos=&quot;61:1-61:50&quot;&gt;&lt;font size=&quot;3&quot;&gt;База даних з інформацією про квитки та заходи.&lt;/font&gt;&lt;/li&gt;&lt;font size=&quot;3&quot;&gt;&lt;br&gt;&lt;/font&gt;&lt;li data-sourcepos=&quot;62:1-62:73&quot;&gt;&lt;font size=&quot;3&quot;&gt;Команда розробників, маркетологів, менеджерів з продажу та підтримки.&lt;/font&gt;&lt;/li&gt;&lt;font size=&quot;3&quot;&gt;&lt;br&gt;&lt;/font&gt;&lt;li data-sourcepos=&quot;63:1-64:0&quot;&gt;&lt;font size=&quot;3&quot;&gt;Партнерські зв&#39;язки з перевізниками та організаторами заходів.&lt;/font&gt;&lt;/li&gt;&lt;/ul&gt;&lt;div&gt;&lt;br/&gt;&lt;/div&gt;" style="rounded=0;whiteSpace=wrap;html=1;shadow=0;labelBackgroundColor=none;strokeColor=#e8edf0;strokeWidth=5;fillColor=#ffffff;fontSize=12;fontColor=#2F5B7C;align=left;verticalAlign=top;spacing=30;" parent="1" vertex="1">
          <mxGeometry x="-1790" y="690" width="420" height="450" as="geometry" />
        </mxCell>
        <mxCell id="703" value="&lt;br&gt;&lt;p data-sourcepos=&quot;3:1-3:27&quot;&gt;&lt;strong&gt;&lt;font style=&quot;font-size: 24px;&quot;&gt;Ціннісні пропозиції:&lt;/font&gt;&lt;/strong&gt;&lt;/p&gt;&lt;ul data-sourcepos=&quot;5:1-17:0&quot;&gt;&lt;br&gt;&lt;li data-sourcepos=&quot;5:1-11:38&quot;&gt;&lt;font style=&quot;font-size: 15px;&quot;&gt;&lt;strong style=&quot;&quot;&gt;Для клієнтів:&lt;/strong&gt;&lt;br&gt;&lt;/font&gt;&lt;ul data-sourcepos=&quot;6:5-11:38&quot;&gt;&lt;font style=&quot;font-size: 15px;&quot;&gt;&lt;br&gt;&lt;/font&gt;&lt;li data-sourcepos=&quot;6:5-6:81&quot;&gt;&lt;font size=&quot;3&quot;&gt;Зручний та інтуїтивно зрозумілий інтерфейс для пошуку та купівлі квитків.&lt;/font&gt;&lt;/li&gt;&lt;font size=&quot;3&quot;&gt;&lt;br&gt;&lt;/font&gt;&lt;li data-sourcepos=&quot;7:5-7:65&quot;&gt;&lt;font size=&quot;3&quot;&gt;Широкий вибір квитків на різні види транспорту та заходи.&lt;/font&gt;&lt;/li&gt;&lt;font size=&quot;3&quot;&gt;&lt;br&gt;&lt;/font&gt;&lt;li data-sourcepos=&quot;8:5-8:51&quot;&gt;&lt;font size=&quot;3&quot;&gt;Персоналізовані рекомендації та сповіщення.&lt;/font&gt;&lt;/li&gt;&lt;font size=&quot;3&quot;&gt;&lt;br&gt;&lt;/font&gt;&lt;li data-sourcepos=&quot;9:5-9:30&quot;&gt;&lt;font size=&quot;3&quot;&gt;Вигідні ціни та акції.&lt;/font&gt;&lt;/li&gt;&lt;font size=&quot;3&quot;&gt;&lt;br&gt;&lt;/font&gt;&lt;li data-sourcepos=&quot;10:5-10:42&quot;&gt;&lt;font size=&quot;3&quot;&gt;Простий процес повернення квитків.&lt;/font&gt;&lt;/li&gt;&lt;font size=&quot;3&quot;&gt;&lt;br&gt;&lt;/font&gt;&lt;li data-sourcepos=&quot;11:5-11:38&quot;&gt;&lt;font size=&quot;3&quot;&gt;Цілодобова підтримка клієнтів.&lt;/font&gt;&lt;/li&gt;&lt;font size=&quot;3&quot;&gt;&lt;br&gt;&lt;/font&gt;&lt;/ul&gt;&lt;font size=&quot;3&quot;&gt;&lt;br&gt;&lt;/font&gt;&lt;/li&gt;&lt;font size=&quot;3&quot;&gt;&lt;br&gt;&lt;/font&gt;&lt;li data-sourcepos=&quot;12:1-17:0&quot;&gt;&lt;font size=&quot;3&quot;&gt;&lt;strong&gt;Для партнерів (перевізників, організаторів заходів):&lt;/strong&gt;&lt;br&gt;&lt;/font&gt;&lt;ul data-sourcepos=&quot;13:5-17:0&quot;&gt;&lt;font size=&quot;3&quot;&gt;&lt;br&gt;&lt;/font&gt;&lt;li data-sourcepos=&quot;13:5-13:41&quot;&gt;&lt;font size=&quot;3&quot;&gt;Розширення каналів збуту квитків.&lt;/font&gt;&lt;/li&gt;&lt;font size=&quot;3&quot;&gt;&lt;br&gt;&lt;/font&gt;&lt;li data-sourcepos=&quot;14:5-14:39&quot;&gt;&lt;font size=&quot;3&quot;&gt;Збільшення охоплення аудиторії.&lt;/font&gt;&lt;/li&gt;&lt;font size=&quot;3&quot;&gt;&lt;br&gt;&lt;/font&gt;&lt;li data-sourcepos=&quot;15:5-15:57&quot;&gt;&lt;font size=&quot;3&quot;&gt;Автоматизація процесів продажу та обліку квитків.&lt;/font&gt;&lt;/li&gt;&lt;font size=&quot;3&quot;&gt;&lt;br&gt;&lt;/font&gt;&lt;li data-sourcepos=&quot;16:5-17:0&quot;&gt;&lt;font size=&quot;3&quot;&gt;Маркетингова підтримка та просування заходів.&lt;/font&gt;&lt;/li&gt;&lt;/ul&gt;&lt;/li&gt;&lt;/ul&gt;&lt;div&gt;&lt;br&gt;&lt;/div&gt;" style="rounded=0;whiteSpace=wrap;html=1;shadow=0;labelBackgroundColor=none;strokeColor=#e8edf0;strokeWidth=5;fillColor=#ffffff;fontSize=12;fontColor=#2F5B7C;align=left;verticalAlign=top;spacing=30;" parent="1" vertex="1">
          <mxGeometry x="-1370" y="240" width="420" height="900" as="geometry" />
        </mxCell>
        <mxCell id="704" value="&lt;font style=&quot;font-size: 14px;&quot;&gt;&lt;br&gt;&lt;/font&gt;&lt;p data-sourcepos=&quot;18:1-18:25&quot;&gt;&lt;strong&gt;&lt;font style=&quot;font-size: 24px;&quot;&gt; Сегменти клієнтів:&lt;/font&gt;&lt;/strong&gt;&lt;/p&gt;&lt;ul data-sourcepos=&quot;20:1-24:0&quot;&gt;&lt;font style=&quot;font-size: 14px;&quot;&gt;&lt;br&gt;&lt;/font&gt;&lt;li data-sourcepos=&quot;20:1-20:87&quot;&gt;&lt;font style=&quot;font-size: 14px;&quot;&gt;Мандрівники, які користуються різними видами транспорту (поїзди, автобуси, літаки).&lt;/font&gt;&lt;/li&gt;&lt;font style=&quot;font-size: 14px;&quot;&gt;&lt;br&gt;&lt;/font&gt;&lt;li data-sourcepos=&quot;21:1-21:82&quot;&gt;&lt;font style=&quot;font-size: 14px;&quot;&gt;Відвідувачі культурних та розважальних заходів (концерти, вистави, фестивалі).&lt;/font&gt;&lt;/li&gt;&lt;font style=&quot;font-size: 14px;&quot;&gt;&lt;br&gt;&lt;/font&gt;&lt;li data-sourcepos=&quot;22:1-22:25&quot;&gt;&lt;font style=&quot;font-size: 14px;&quot;&gt;Організатори заходів.&lt;/font&gt;&lt;/li&gt;&lt;font style=&quot;font-size: 14px;&quot;&gt;&lt;br&gt;&lt;/font&gt;&lt;li data-sourcepos=&quot;23:1-24:0&quot;&gt;&lt;font style=&quot;font-size: 14px;&quot;&gt;Перевізники.&lt;/font&gt;&lt;/li&gt;&lt;/ul&gt;&lt;font style=&quot;font-size: 14px;&quot;&gt;&lt;br&gt;&lt;/font&gt;" style="rounded=0;whiteSpace=wrap;html=1;shadow=0;labelBackgroundColor=none;strokeColor=#e8edf0;strokeWidth=5;fillColor=#ffffff;fontSize=12;fontColor=#2F5B7C;align=left;verticalAlign=top;spacing=30;" parent="1" vertex="1">
          <mxGeometry x="-530" y="235" width="420" height="900" as="geometry" />
        </mxCell>
        <mxCell id="705" value="&lt;br&gt;&lt;p data-sourcepos=&quot;25:1-25:20&quot;&gt;&lt;strong&gt;&lt;font style=&quot;font-size: 24px;&quot;&gt;Канали збуту:&lt;/font&gt;&lt;/strong&gt;&lt;/p&gt;&lt;ul data-sourcepos=&quot;27:1-32:0&quot;&gt;&lt;br&gt;&lt;li data-sourcepos=&quot;27:1-27:13&quot;&gt;Веб-сайт.&lt;/li&gt;&lt;br&gt;&lt;li data-sourcepos=&quot;28:1-28:22&quot;&gt;Мобільний додаток.&lt;/li&gt;&lt;br&gt;&lt;li data-sourcepos=&quot;29:1-29:21&quot;&gt;Соціальні мережі.&lt;/li&gt;&lt;br&gt;&lt;li data-sourcepos=&quot;30:1-30:73&quot;&gt;Партнерські програми з туристичними агентствами та іншими компаніями.&lt;/li&gt;&lt;br&gt;&lt;li data-sourcepos=&quot;31:1-32:0&quot;&gt;Колл-центр.&lt;/li&gt;&lt;/ul&gt;&lt;div&gt;&lt;br/&gt;&lt;/div&gt;" style="rounded=0;whiteSpace=wrap;html=1;shadow=0;labelBackgroundColor=none;strokeColor=#e8edf0;strokeWidth=5;fillColor=#ffffff;fontSize=14;fontColor=#2F5B7C;align=left;verticalAlign=top;spacing=30;" parent="1" vertex="1">
          <mxGeometry x="-950" y="690" width="420" height="450" as="geometry" />
        </mxCell>
        <mxCell id="706" value="&lt;br&gt;&lt;p data-sourcepos=&quot;73:1-73:24&quot;&gt;&lt;strong&gt;&lt;font style=&quot;font-size: 24px;&quot;&gt;Структура витрат:&lt;/font&gt;&lt;/strong&gt;&lt;/p&gt;&lt;ul data-sourcepos=&quot;75:1-80:0&quot;&gt;&lt;br&gt;&lt;li data-sourcepos=&quot;75:1-75:55&quot;&gt;Витрати на розробку та підтримку IT-інфраструктури.&lt;/li&gt;&lt;br&gt;&lt;li data-sourcepos=&quot;76:1-76:25&quot;&gt;Маркетингові витрати.&lt;/li&gt;&lt;br&gt;&lt;li data-sourcepos=&quot;77:1-77:38&quot;&gt;Витрати на оплату праці персоналу.&lt;/li&gt;&lt;br&gt;&lt;li data-sourcepos=&quot;78:1-78:37&quot;&gt;Комісійні відрахування партнерам.&lt;/li&gt;&lt;br&gt;&lt;li data-sourcepos=&quot;79:1-80:0&quot;&gt;Операційні витрати (оренда офісу, зв&#39;язок тощо).&lt;/li&gt;&lt;/ul&gt;&lt;div&gt;&lt;br/&gt;&lt;/div&gt;" style="rounded=0;whiteSpace=wrap;html=1;shadow=0;labelBackgroundColor=none;strokeColor=#e8edf0;strokeWidth=5;fillColor=#ffffff;fontSize=14;fontColor=#2F5B7C;align=left;verticalAlign=top;spacing=30;" parent="1" vertex="1">
          <mxGeometry x="-2218" y="1150" width="1050" height="330" as="geometry" />
        </mxCell>
        <mxCell id="707" value="&lt;font style=&quot;font-size: 14px;&quot;&gt;&lt;br&gt;&lt;/font&gt;&lt;p data-sourcepos=&quot;41:1-41:22&quot;&gt;&lt;strong&gt;&lt;font style=&quot;font-size: 24px;&quot;&gt;Джерела доходу:&lt;/font&gt;&lt;/strong&gt;&lt;/p&gt;&lt;div&gt;&lt;li data-sourcepos=&quot;43:1-43:30&quot;&gt;&lt;font style=&quot;font-size: 14px;&quot;&gt;Комісія з продажу квитків.&lt;/font&gt;&lt;/li&gt;&lt;br/&gt;&lt;li data-sourcepos=&quot;44:1-44:65&quot;&gt;&lt;font style=&quot;font-size: 14px;&quot;&gt;Плата за розміщення інформації про заходи на сайті/в додатку.&lt;/font&gt;&lt;/li&gt;&lt;br/&gt;&lt;li data-sourcepos=&quot;45:1-45:31&quot;&gt;&lt;font style=&quot;font-size: 14px;&quot;&gt;Реклама на сайті/в додатку.&lt;/font&gt;&lt;/li&gt;&lt;br/&gt;&lt;li data-sourcepos=&quot;46:1-46:25&quot;&gt;&lt;font style=&quot;font-size: 14px;&quot;&gt;Партнерські програми.&lt;/font&gt;&lt;/li&gt;&lt;br/&gt;&lt;li data-sourcepos=&quot;47:1-48:0&quot;&gt;&lt;font style=&quot;font-size: 14px;&quot;&gt;Додаткові послуги (страхування, бронювання готелів тощо).&lt;/font&gt;&lt;/li&gt;&lt;/div&gt;" style="rounded=0;whiteSpace=wrap;html=1;shadow=0;labelBackgroundColor=none;strokeColor=#e8edf0;strokeWidth=5;fillColor=#ffffff;fontSize=12;fontColor=#2F5B7C;align=left;verticalAlign=top;spacing=30;" parent="1" vertex="1">
          <mxGeometry x="-1160" y="1150" width="1050" height="330" as="geometry" />
        </mxCell>
        <mxCell id="708" value="The Business Model Canvas&lt;br&gt;&lt;div&gt;of transport ticket purchase service&lt;/div&gt;&lt;div&gt;&lt;br&gt;&lt;/div&gt;" style="text;html=1;resizable=0;points=[];autosize=1;align=left;verticalAlign=top;spacingTop=-4;fontSize=60;fontColor=#2F5B7C;" parent="1" vertex="1">
          <mxGeometry x="-2219" y="32" width="950" height="220" as="geometry" />
        </mxCell>
        <mxCell id="709" value="" style="html=1;verticalLabelPosition=bottom;labelBackgroundColor=#ffffff;verticalAlign=top;shadow=0;dashed=0;strokeWidth=4;shape=mxgraph.ios7.misc.check;strokeColor=#2F5B7C;fillColor=#ffffff;gradientColor=none;fontSize=12;fontColor=#2F5B7C;align=left;" parent="1" vertex="1">
          <mxGeometry x="-1410" y="252" width="20" height="16" as="geometry" />
        </mxCell>
        <mxCell id="710" value="" style="shape=mxgraph.signs.travel.present;html=1;fillColor=#2F5B7C;strokeColor=none;verticalLabelPosition=bottom;verticalAlign=top;align=center;shadow=0;labelBackgroundColor=none;fontSize=12;fontColor=#2F5B7C;" parent="1" vertex="1">
          <mxGeometry x="-1000" y="235" width="31" height="40" as="geometry" />
        </mxCell>
        <mxCell id="711" value="" style="html=1;verticalLabelPosition=bottom;labelBackgroundColor=#ffffff;verticalAlign=top;strokeWidth=3;strokeColor=none;fillColor=#2F5B7C;shadow=0;dashed=0;shape=mxgraph.ios7.icons.heart;fontSize=12;fontColor=#2F5B7C;align=left;" parent="1" vertex="1">
          <mxGeometry x="-594.9999999999997" y="242" width="41" height="36" as="geometry" />
        </mxCell>
        <mxCell id="715" value="" style="shadow=0;dashed=0;html=1;strokeColor=none;labelPosition=center;verticalLabelPosition=bottom;verticalAlign=top;shape=mxgraph.mscae.cloud.data_factory;fillColor=#2F5B7C;labelBackgroundColor=none;fontSize=10;fontColor=#2F5B7C;align=left;" parent="1" vertex="1">
          <mxGeometry x="-1440" y="690" width="50" height="50" as="geometry" />
        </mxCell>
        <mxCell id="716" value="" style="shape=mxgraph.signs.transportation.truck_6;html=1;fillColor=#2F5B7C;strokeColor=none;verticalLabelPosition=bottom;verticalAlign=top;align=center;shadow=0;labelBackgroundColor=none;fontSize=10;fontColor=#2F5B7C;aspect=fixed;" parent="1" vertex="1">
          <mxGeometry x="-590" y="690" width="40" height="50" as="geometry" />
        </mxCell>
        <mxCell id="717" value="" style="shape=image;html=1;verticalAlign=top;verticalLabelPosition=bottom;labelBackgroundColor=#ffffff;imageAspect=0;aspect=fixed;image=https://cdn4.iconfinder.com/data/icons/evil-icons-user-interface/64/price-128.png;shadow=0;strokeColor=#e8edf0;strokeWidth=3;fillColor=#2F5B7C;gradientColor=none;fontSize=10;fontColor=#2F5B7C;align=left;" parent="1" vertex="1">
          <mxGeometry x="-1226" y="1140" width="58" height="58" as="geometry" />
        </mxCell>
        <mxCell id="718" value="" style="dashed=0;html=1;shape=mxgraph.aws3.checklist_cost;fillColor=#2F5B7C;gradientColor=none;shadow=0;labelBackgroundColor=none;strokeColor=none;strokeWidth=3;fontSize=10;fontColor=#2F5B7C;align=left;" parent="1" vertex="1">
          <mxGeometry x="-203.5" y="1131.5" width="67.5" height="75" as="geometry" />
        </mxCell>
        <mxCell id="719" value="" style="shadow=0;dashed=0;html=1;strokeColor=none;fillColor=#2F5B7C;labelPosition=center;verticalLabelPosition=bottom;verticalAlign=top;outlineConnect=0;shape=mxgraph.office.concepts.link;labelBackgroundColor=none;fontSize=10;fontColor=#000000;align=left;" parent="1" vertex="1">
          <mxGeometry x="-1871" y="241" width="61" height="21" as="geometry" />
        </mxCell>
        <mxCell id="720" value="" style="group" parent="1" vertex="1" connectable="0">
          <mxGeometry x="-203.5" y="245" width="69" height="50" as="geometry" />
        </mxCell>
        <mxCell id="721" value="" style="shadow=0;dashed=0;html=1;strokeColor=#FFFFFF;labelPosition=center;verticalLabelPosition=bottom;verticalAlign=top;outlineConnect=0;shape=mxgraph.office.users.user;fillColor=#2F5B7C;labelBackgroundColor=none;fontSize=10;fontColor=#000000;align=left;strokeWidth=2;" parent="720" vertex="1">
          <mxGeometry x="31" y="-5" width="46" height="50" as="geometry" />
        </mxCell>
        <mxCell id="722" value="" style="shadow=0;dashed=0;html=1;strokeColor=#FFFFFF;labelPosition=center;verticalLabelPosition=bottom;verticalAlign=top;outlineConnect=0;shape=mxgraph.office.users.user;fillColor=#2F5B7C;labelBackgroundColor=none;fontSize=10;fontColor=#000000;align=left;strokeWidth=2;" parent="720" vertex="1">
          <mxGeometry width="46" height="50" as="geometry" />
        </mxCell>
      </root>
    </mxGraphModel>
  </diagram>
</mxfile>
